<?xml version="1.0" encoding="utf-8"?>
<!-- Generator: Adobe Illustrator 16.0.0, SVG Export Plug-In . SVG Version: 6.00 Build 0)  -->
<!DOCTYPE svg PUBLIC "-//W3C//DTD SVG 1.1//EN" "http://www.w3.org/Graphics/SVG/1.1/DTD/svg11.dtd">
<svg version="1.1" xmlns="http://www.w3.org/2000/svg" xmlns:xlink="http://www.w3.org/1999/xlink" x="0px" y="0px"
	 width="72px" height="50px"
	 xml:space="preserve">
<g id="Layer_2">
	<g>
		<linearGradient id="SVGID_1_" gradientUnits="userSpaceOnUse" x1="-9.2529" y1="22.2949" x2="93.0852" y2="22.2949">
			<stop  offset="0" style="stop-color:#FF1244"/>
			<stop  offset="0.5025" style="stop-color:#5B78E6"/>
			<stop  offset="0.558" style="stop-color:#4C8BEA"/>
			<stop  offset="0.6959" style="stop-color:#2BB6F3"/>
			<stop  offset="0.8204" style="stop-color:#14D5FA"/>
			<stop  offset="0.926" style="stop-color:#05E7FE"/>
			<stop  offset="1" style="stop-color:#00EEFF"/>
		</linearGradient>
		<path fill="url(#SVGID_1_)" d="M11.45,28.088L11.45,28.088c-1.556,0-2.83-1.273-2.83-2.83v-5.927c0-1.556,1.274-2.83,2.83-2.83
			l0,0c1.557,0,2.83,1.274,2.83,2.83v5.927C14.28,26.815,13.007,28.088,11.45,28.088z"/>
		<linearGradient id="SVGID_2_" gradientUnits="userSpaceOnUse" x1="-9.2554" y1="25.1245" x2="93.1004" y2="25.1245">
			<stop  offset="0" style="stop-color:#FF1244"/>
			<stop  offset="0.5025" style="stop-color:#5B78E6"/>
			<stop  offset="0.558" style="stop-color:#4C8BEA"/>
			<stop  offset="0.6959" style="stop-color:#2BB6F3"/>
			<stop  offset="0.8204" style="stop-color:#14D5FA"/>
			<stop  offset="0.926" style="stop-color:#05E7FE"/>
			<stop  offset="1" style="stop-color:#00EEFF"/>
		</linearGradient>
		<path fill="url(#SVGID_2_)" d="M3.101,22.294L3.101,22.294c-1.557,0-2.83,1.274-2.83,2.831l0,0c0,1.557,1.273,2.829,2.83,2.829
			l0,0c1.557,0,2.831-1.272,2.831-2.829l0,0C5.931,23.568,4.657,22.294,3.101,22.294z"/>
		<linearGradient id="SVGID_3_" gradientUnits="userSpaceOnUse" x1="-9.2524" y1="21.3784" x2="93.0857" y2="21.3784">
			<stop  offset="0" style="stop-color:#FF1244"/>
			<stop  offset="0.5025" style="stop-color:#5B78E6"/>
			<stop  offset="0.558" style="stop-color:#4C8BEA"/>
			<stop  offset="0.6959" style="stop-color:#2BB6F3"/>
			<stop  offset="0.8204" style="stop-color:#14D5FA"/>
			<stop  offset="0.926" style="stop-color:#05E7FE"/>
			<stop  offset="1" style="stop-color:#00EEFF"/>
		</linearGradient>
		<path fill="url(#SVGID_3_)" d="M19.685,33.876L19.685,33.876c-1.556,0-2.83-1.273-2.83-2.83V11.711
			c0-1.557,1.274-2.831,2.83-2.831l0,0c1.557,0,2.83,1.273,2.83,2.831v19.334C22.515,32.603,21.241,33.876,19.685,33.876z"/>
		<linearGradient id="SVGID_4_" gradientUnits="userSpaceOnUse" x1="-9.2549" y1="27.7817" x2="93.0909" y2="27.7817">
			<stop  offset="0" style="stop-color:#FF1244"/>
			<stop  offset="0.5025" style="stop-color:#5B78E6"/>
			<stop  offset="0.558" style="stop-color:#4C8BEA"/>
			<stop  offset="0.6959" style="stop-color:#2BB6F3"/>
			<stop  offset="0.8204" style="stop-color:#14D5FA"/>
			<stop  offset="0.926" style="stop-color:#05E7FE"/>
			<stop  offset="1" style="stop-color:#00EEFF"/>
		</linearGradient>
		<path fill="url(#SVGID_4_)" d="M27.92,37.309L27.92,37.309c-1.557,0-2.831-1.273-2.831-2.831V21.084
			c0-1.557,1.273-2.83,2.831-2.83l0,0c1.557,0,2.83,1.273,2.83,2.83v13.394C30.75,36.036,29.477,37.309,27.92,37.309z"/>
		<linearGradient id="SVGID_5_" gradientUnits="userSpaceOnUse" x1="-9.2666" y1="25.125" x2="93.0969" y2="25.125">
			<stop  offset="0" style="stop-color:#FF1244"/>
			<stop  offset="0.5025" style="stop-color:#5B78E6"/>
			<stop  offset="0.558" style="stop-color:#4C8BEA"/>
			<stop  offset="0.6959" style="stop-color:#2BB6F3"/>
			<stop  offset="0.8204" style="stop-color:#14D5FA"/>
			<stop  offset="0.926" style="stop-color:#05E7FE"/>
			<stop  offset="1" style="stop-color:#00EEFF"/>
		</linearGradient>
		<path fill="url(#SVGID_5_)" d="M60.859,30.918L60.859,30.918c1.557,0,2.831-1.273,2.831-2.83v-5.927
			c0-1.556-1.273-2.83-2.831-2.83l0,0c-1.557,0-2.831,1.274-2.831,2.83v5.927C58.028,29.646,59.302,30.918,60.859,30.918z"/>
		<linearGradient id="SVGID_6_" gradientUnits="userSpaceOnUse" x1="-9.2539" y1="25.125" x2="93.0919" y2="25.125">
			<stop  offset="0" style="stop-color:#FF1244"/>
			<stop  offset="0.5025" style="stop-color:#5B78E6"/>
			<stop  offset="0.558" style="stop-color:#4C8BEA"/>
			<stop  offset="0.6959" style="stop-color:#2BB6F3"/>
			<stop  offset="0.8204" style="stop-color:#14D5FA"/>
			<stop  offset="0.926" style="stop-color:#05E7FE"/>
			<stop  offset="1" style="stop-color:#00EEFF"/>
		</linearGradient>
		<path fill="url(#SVGID_6_)" d="M52.625,41.369L52.625,41.369c1.556,0,2.83-1.273,2.83-2.83V11.711c0-1.557-1.274-2.831-2.83-2.831
			l0,0c-1.557,0-2.83,1.273-2.83,2.831v26.828C49.795,40.096,51.068,41.369,52.625,41.369z"/>
		<linearGradient id="SVGID_7_" gradientUnits="userSpaceOnUse" x1="-9.2588" y1="21.9297" x2="93.0959" y2="21.9297">
			<stop  offset="0" style="stop-color:#FF1244"/>
			<stop  offset="0.5025" style="stop-color:#5B78E6"/>
			<stop  offset="0.558" style="stop-color:#4C8BEA"/>
			<stop  offset="0.6959" style="stop-color:#2BB6F3"/>
			<stop  offset="0.8204" style="stop-color:#14D5FA"/>
			<stop  offset="0.926" style="stop-color:#05E7FE"/>
			<stop  offset="1" style="stop-color:#00EEFF"/>
		</linearGradient>
		<path fill="url(#SVGID_7_)" d="M44.289,30.918h0.202c1.5,0,2.729-1.229,2.729-2.729V15.671c0-1.501-1.229-2.729-2.729-2.729
			h-0.202c-1.501,0-2.729,1.229-2.729,2.729v12.518C41.56,29.69,42.788,30.918,44.289,30.918z"/>
		<linearGradient id="SVGID_8_" gradientUnits="userSpaceOnUse" x1="-9.2544" y1="20.7891" x2="93.0914" y2="20.7891">
			<stop  offset="0" style="stop-color:#FF1244"/>
			<stop  offset="0.5025" style="stop-color:#5B78E6"/>
			<stop  offset="0.558" style="stop-color:#4C8BEA"/>
			<stop  offset="0.6959" style="stop-color:#2BB6F3"/>
			<stop  offset="0.8204" style="stop-color:#14D5FA"/>
			<stop  offset="0.926" style="stop-color:#05E7FE"/>
			<stop  offset="1" style="stop-color:#00EEFF"/>
		</linearGradient>
		<path fill="url(#SVGID_8_)" d="M36.155,41.369L36.155,41.369c-1.557,0-2.83-1.273-2.83-2.83v-35.5c0-1.556,1.273-2.83,2.83-2.83
			l0,0c1.556,0,2.83,1.274,2.83,2.83v35.5C38.985,40.096,37.711,41.369,36.155,41.369z"/>
		<linearGradient id="SVGID_9_" gradientUnits="userSpaceOnUse" x1="-9.2544" y1="25.1245" x2="93.0926" y2="25.1245">
			<stop  offset="0" style="stop-color:#FF1244"/>
			<stop  offset="0.5025" style="stop-color:#5B78E6"/>
			<stop  offset="0.558" style="stop-color:#4C8BEA"/>
			<stop  offset="0.6959" style="stop-color:#2BB6F3"/>
			<stop  offset="0.8204" style="stop-color:#14D5FA"/>
			<stop  offset="0.926" style="stop-color:#05E7FE"/>
			<stop  offset="1" style="stop-color:#00EEFF"/>
		</linearGradient>
		<path fill="url(#SVGID_9_)" d="M68.965,27.955L68.965,27.955c1.557,0,2.831-1.272,2.831-2.829l0,0
			c0-1.557-1.274-2.831-2.831-2.831l0,0c-1.556,0-2.83,1.274-2.83,2.831l0,0C66.135,26.682,67.409,27.955,68.965,27.955z"/>
	</g>
</g>
</svg>
